<svg width="68" height="60" viewBox="0 0 68 60" fill="none" xmlns="http://www.w3.org/2000/svg">
<path fill-rule="evenodd" clip-rule="evenodd" d="M67.9984 29.7919C67.9984 46.141 54.0253 59.3945 36.7885 59.3945C36.5718 59.3945 36.3556 59.3924 36.1399 59.3883V53.8363C36.3554 53.8414 36.5715 53.844 36.7883 53.844C50.7931 53.844 62.1463 43.0755 62.1463 29.7919C62.1463 16.5082 50.7931 5.73975 36.7883 5.73975C24.9802 5.73975 15.0571 13.395 12.2347 23.7586C15.5663 24.9085 17.9383 27.8734 17.9383 31.3496C17.9383 31.5593 17.9297 31.7672 17.9127 31.9729H13.7212V36.3354C13.7212 36.8785 13.2808 37.3189 12.7377 37.3189C12.1945 37.3189 11.7542 36.8785 11.7542 36.3354V31.9729H6.56816V36.3354C6.56816 36.8785 6.12782 37.3189 5.58465 37.3189C5.04147 37.3189 4.60114 36.8785 4.60114 36.3354V31.9729H0.408402C0.391446 31.7672 0.382812 31.5593 0.382812 31.3496C0.382812 27.8207 2.82728 24.8187 6.23861 23.7076C9.19671 10.2772 21.7506 0.189331 36.7885 0.189331C54.0253 0.189331 67.9984 13.4429 67.9984 29.7919Z" fill="#556BAF"/>
<path d="M29.0969 25.4821C29.1903 25.099 29.6742 24.9762 29.939 25.2685L39.3115 35.613C39.5961 35.9271 39.3766 36.4301 38.9527 36.4349L27.0241 36.571C26.703 36.5747 26.4647 36.2747 26.5407 35.9628L29.0969 25.4821Z" fill="#556BAF"/>
<path d="M41.241 26.3146C41.4604 26.5435 41.836 26.5079 42.0085 26.2418L48.6556 15.9927C48.8677 15.6655 48.6329 15.2333 48.243 15.2333H31.7699C31.3368 15.2333 31.1152 15.7527 31.4149 16.0654L41.241 26.3146Z" fill="#556BAF"/>
<path d="M41.6224 34.2509C41.8298 34.4188 42.1332 34.3907 42.3062 34.1875L48.7343 26.6384C49.0062 26.3191 48.7793 25.8278 48.3599 25.8278H32.6076C32.1442 25.8278 31.938 26.4102 32.2982 26.7018L41.6224 34.2509Z" fill="#556BAF"/>
<path d="M26.9695 51.4732C26.7569 51.9959 27.4485 52.4066 27.8057 51.9698L43.3657 32.9415C43.6888 32.5463 43.2703 31.9814 42.7981 32.1753L33.4085 36.0324C33.2864 36.0826 33.1896 36.1797 33.1398 36.302L26.9695 51.4732Z" fill="#556BAF"/>
<rect width="3.24447" height="21.3205" rx="0.491754" transform="matrix(0.976872 0.213823 -0.231769 0.972771 31.4609 15.1461)" fill="#556BAF"/>
<rect x="31.5918" y="17.7261" width="9.75307" height="16.8267" fill="#556BAF"/>
</svg>
