<svg width="55" height="55" viewBox="0 0 55 55" fill="none" xmlns="http://www.w3.org/2000/svg">
<path fill-rule="evenodd" clip-rule="evenodd" d="M27.5 55C42.6878 55 55 42.6878 55 27.5C55 12.3122 42.6878 0 27.5 0C12.3122 0 0 12.3122 0 27.5C0 42.6878 12.3122 55 27.5 55ZM27.4999 50.7282C40.3284 50.7282 50.728 40.3286 50.728 27.5C50.728 14.6714 40.3284 4.27185 27.4999 4.27185C14.6713 4.27185 4.27171 14.6714 4.27171 27.5C4.27171 40.3286 14.6713 50.7282 27.4999 50.7282ZM30.4373 27.5C30.4373 26.5561 30.4525 25.5076 31.0874 24.8092L37.3791 17.8883L30.1645 23.9638C29.4538 24.5623 28.4296 24.5631 27.5004 24.5631C25.8784 24.5631 24.5635 25.878 24.5635 27.5C24.5635 28.1281 24.4268 28.7956 23.9463 29.2002L23.1908 29.8365C22.6367 30.303 22.6007 31.1439 23.1129 31.6561C23.612 32.1551 24.4269 32.1357 24.9017 31.6135L25.3504 31.1199C25.8738 30.5442 26.7223 30.4369 27.5004 30.4369C29.1224 30.4369 30.4373 29.122 30.4373 27.5ZM28.3003 7.2088C28.3003 6.76643 27.9417 6.40783 27.4993 6.40783C27.0569 6.40783 26.6983 6.76643 26.6983 7.2088V7.50631C26.6983 8.09528 26.2331 8.57603 25.6468 8.63283C21.6938 9.01584 18.0961 10.613 15.2313 13.0467C14.7781 13.4317 14.1066 13.443 13.6654 13.0444L13.4155 12.8185C13.0873 12.522 12.5808 12.5476 12.2842 12.8759C11.9876 13.2041 12.0133 13.7106 12.3415 14.0072L12.5428 14.189C12.9798 14.5839 13.0139 15.2555 12.6475 15.7167C10.0769 18.952 8.54124 23.0467 8.54124 27.4999C8.54124 27.9369 8.19367 28.3009 7.75667 28.3009H7.20692C6.76456 28.3009 6.40595 28.6595 6.40595 29.1019C6.40595 29.5442 6.76456 29.9028 7.20692 29.9028H7.62103C8.23314 29.9028 8.74544 30.3592 8.8565 30.9612C9.46662 34.268 10.935 37.2742 13.022 39.7399C13.3748 40.1567 13.3722 40.7764 12.9923 41.1686L12.8377 41.3281C12.5299 41.6459 12.538 42.153 12.8557 42.4607C13.1734 42.7685 13.6805 42.7605 13.9883 42.4427L15.397 40.9886C15.9994 40.4582 16.0073 39.526 15.4708 38.9291C12.825 35.9858 11.2111 32.0679 11.2111 27.7669C11.2111 18.6247 18.5028 11.2135 27.4975 11.2135C36.4922 11.2135 43.7839 18.6247 43.7839 27.7669C43.7839 32.0933 42.1509 36.0321 39.4772 38.9812C39.4768 38.9816 39.4761 38.9817 39.4757 38.9813C39.4752 38.9809 39.4745 38.981 39.4741 38.9814L39.4403 39.0218C39.1136 39.3797 38.7716 39.7229 38.4153 40.0503C38.3872 40.076 38.3878 40.1205 38.4165 40.1454L38.4531 40.1771C38.4591 40.1822 38.4598 40.1911 38.4547 40.1971C38.4497 40.2032 38.4505 40.2122 38.4565 40.2173L39.8054 41.3484L40.1298 41.6294C40.1314 41.6307 40.1336 41.6307 40.1351 41.6293C40.1366 41.628 40.1389 41.628 40.1404 41.6293L40.95 42.3082C41.289 42.5924 41.7942 42.548 42.0784 42.2091C42.3627 41.8701 42.3183 41.3649 41.9793 41.0807L41.9609 41.0653C41.5974 40.7604 41.5667 40.2134 41.876 39.8536C44.0143 37.3672 45.5187 34.3199 46.1383 30.9626C46.2496 30.3599 46.7625 29.9029 47.3754 29.9029H47.791C48.2333 29.9029 48.5919 29.5443 48.5919 29.102C48.5919 28.6596 48.2333 28.301 47.791 28.301H47.2385C46.8015 28.301 46.4539 27.937 46.4539 27.4999C46.4539 22.9945 44.8821 18.8562 42.2569 15.6034C41.9056 15.1681 41.9339 14.5303 42.3458 14.1519L42.5077 14.0032C42.8335 13.7039 42.855 13.1972 42.5557 12.8715C42.2565 12.5457 41.7498 12.5242 41.424 12.8234L41.2199 13.0109C40.8039 13.393 40.1656 13.3866 39.7343 13.0218C36.8752 10.6028 33.2898 9.01545 29.3517 8.63316C28.7655 8.57625 28.3003 8.09547 28.3003 7.50648V7.2088Z" fill="#556BAF"/>
</svg>
