<svg width="149" height="142" viewBox="0 0 149 142" fill="none" xmlns="http://www.w3.org/2000/svg">
<g clip-path="url(#clip0_355_67)">
<path d="M36.6136 4.92452C36.6825 5.20371 36.8031 5.7272 36.8892 6.05874C38.0777 10.9272 39.5246 18.2385 40.0414 22.0251C40.7131 26.8411 40.9026 31.0465 40.4892 32.3029C40.2481 33.0881 39.8691 33.1928 38.4222 32.931C35.2012 32.3378 30.4127 30.1566 23.4367 26.1257C21.4903 25.0089 19.7161 23.9969 19.475 23.8747C19.2338 23.7526 20.4912 25.1311 22.2482 26.9284C27.4845 32.3203 30.051 35.0948 32.5141 38.0089C36.3553 42.5457 38.784 46.0182 39.0423 47.3967C39.1284 47.8329 39.0768 47.9376 38.6289 48.1819C36.1658 49.4732 25.8137 50.1537 13.4291 49.8222C9.86355 49.7349 6.64252 49.6826 6.2808 49.7175C5.78128 49.7524 6.95257 50.1014 10.7765 51.0437C23.2472 54.1497 31.1189 56.5054 34.2883 58.1107C35.7352 58.8262 35.7524 58.8436 35.7007 59.4543C35.5801 61.0597 33.4615 66.3469 30.4127 72.6636C29.3275 74.8972 28.4663 76.7294 28.5008 76.7294C28.518 76.7294 29.4137 76.3281 30.4988 75.8395C37.0959 72.873 44.2614 70.2731 45.8461 70.2731C46.9485 70.2731 48.2404 81.0918 49.36 99.7453C49.6011 103.637 49.7906 106.952 49.7906 107.144C49.7906 107.947 50.0145 107.126 50.6518 104.02C52.4432 95.2608 53.4078 90.9857 54.6135 86.5884C56.8183 78.4918 58.9197 73.2569 60.0565 72.9603C61.9513 72.4717 66.9637 75.7173 73.044 81.3186C74.0258 82.2434 74.8699 82.9589 74.9043 82.9414C74.9215 82.9065 74.3359 81.3186 73.5952 79.4166C71.2871 73.5536 69.7713 68.563 69.7713 66.8355C69.7713 65.9979 68.8412 63.9912 68.445 63.9912C67.8594 63.9912 67.1876 65.3174 67.1876 66.4516C67.1876 67.359 67.7216 70.0462 68.3244 72.0878C68.6517 73.222 68.8929 74.1992 68.8412 74.2341C68.8067 74.2865 68.2039 73.9375 67.4977 73.4489C63.691 70.8489 60.5733 69.8892 58.7991 70.7442C56.7666 71.7214 54.4757 77.2703 51.4786 88.4206L51.2719 89.2058L51.1341 87.8099C51.0652 87.0421 50.8413 84.7213 50.6518 82.6622C49.7906 73.6583 48.6882 68.7724 47.3791 68.0919C46.0528 67.3939 42.0394 68.3013 36.2002 70.6395C35.029 71.1106 34.0127 71.4945 33.9438 71.4945C33.8577 71.4945 34.2538 70.4999 34.805 69.261C36.9926 64.3402 38.25 60.5537 38.25 58.8436C38.25 58.355 38.1294 57.9537 37.871 57.6221C36.9581 56.4356 34.3572 55.1967 29.1553 53.4343C26.0376 52.3873 25.9687 52.4396 30.4299 52.143C36.5103 51.7242 40.7648 50.4504 41.3677 48.845C42.1772 46.7336 39.249 41.6733 33.3581 35.0424C32.7381 34.327 32.2385 33.7163 32.2902 33.6814C32.3247 33.6465 32.8242 33.8035 33.3926 34.0478C36.4242 35.3391 39.9725 35.8975 41.1782 35.2518C41.85 34.9028 42.4701 34.0478 42.7284 33.123C43.3657 30.8545 43.2968 26.5794 42.5734 21.5016C42.4012 20.3499 42.2806 19.3902 42.2978 19.3553C42.315 19.3378 43.0212 20.4372 43.848 21.7982C45.915 25.2009 48.9638 29.8076 50.0662 31.2035C51.3236 32.7914 51.9265 33.28 52.6671 33.28C53.5456 33.28 54.1485 32.8438 54.8891 31.6747L55.5609 30.6451L55.8537 32.7042C56.8011 39.0733 58.0757 43.0343 59.4881 43.9766C59.936 44.2732 61.0556 44.4303 61.2451 44.2383C61.4345 44.0638 60.9006 42.0397 60.4527 41.2196C59.1092 38.7592 57.9207 31.0465 57.1972 20.1056C56.8183 14.3996 56.6805 12.6721 56.5771 12.9513C56.5427 13.0386 56.0776 15.7083 55.5609 18.8842C54.5618 24.8693 53.8556 27.9928 53.1322 29.6156L52.7016 30.5579L52.271 30.0519C51.6164 29.2317 47.448 22.8452 45.605 19.809C44.692 18.3083 42.3495 14.2949 40.3859 10.9097C38.4395 7.5245 36.7687 4.66278 36.6653 4.57553C36.562 4.45338 36.5447 4.57553 36.6136 4.92452Z" fill="#556BAF"/>
<path d="M95.4372 31.3083C95.2994 31.3607 93.2497 32.2157 90.8727 33.1929C88.5129 34.1875 84.4306 35.8626 81.8297 36.9445C79.2287 38.0264 76.9551 39.021 76.8 39.1781C76.1627 39.7364 76.2316 40.417 77.179 42.6854C77.6613 43.872 78.0402 44.8492 78.0058 44.8841C77.9713 44.9015 77.1445 45.2505 76.1455 45.6693C75.1465 46.0706 70.6508 47.9377 66.1551 49.8048C57.9561 53.2249 56.9226 53.6437 51.3418 55.9471C48.3792 57.1685 47.7246 57.5873 47.7246 58.2504C47.7246 58.6866 48.3275 59.2799 48.7753 59.2799C48.982 59.2799 54.1839 57.186 60.3676 54.6209C66.5341 52.0733 73.1484 49.3337 75.0603 48.531C76.9723 47.7458 78.6086 47.0478 78.6948 46.9954C78.8498 46.8907 79.0048 47.1874 80.09 49.8746C80.7273 51.4276 81.1062 51.8464 81.8813 51.829C82.1914 51.829 84.155 51.1135 86.2564 50.2236C88.3579 49.3511 90.2526 48.6357 90.4765 48.6357C90.9933 48.6357 91.5789 49.0545 91.8889 49.6478C92.0267 49.9095 94.5071 55.9994 97.4181 63.2061C100.329 70.3953 103.085 77.2355 103.567 78.3872C104.032 79.5388 105.135 82.2784 106.03 84.4945C108.804 91.3871 109.562 93.2018 109.837 93.4985C110.285 94.0045 110.957 94.0045 112.283 93.481C112.955 93.2193 113.558 93.0448 113.592 93.1146C113.627 93.1669 113.833 93.7602 114.04 94.4407C114.729 96.5521 116.09 99.7454 117.416 102.398C120.672 108.854 124.461 113.199 129.112 115.816C132.66 117.806 135.261 120.737 137.293 124.977C138.706 127.961 139.791 131.556 140.273 134.924L140.497 136.494L142.047 136.424C142.892 136.407 143.632 136.337 143.684 136.302C143.822 136.232 143.408 133.249 143.047 131.521C142.203 127.647 140.222 122.831 138.241 119.83C137.156 118.207 134.606 115.485 133.246 114.508C132.677 114.106 131.351 113.234 130.283 112.606C124.943 109.395 120.241 102.468 117.123 93.1669L116.641 91.7186L117.451 91.3696C117.898 91.1602 118.536 90.8985 118.863 90.7589C119.19 90.6193 119.586 90.375 119.759 90.2354C120.448 89.5898 120.361 89.2233 118.071 83.6046C116.882 80.6382 115.452 77.1134 114.901 75.7697C114.367 74.4261 113.385 72.0355 112.748 70.4476C112.111 68.8597 110.974 66.0678 110.251 64.253C104.928 51.0612 97.4525 32.6345 97.2458 32.2506C97.1253 31.9888 96.9013 31.6922 96.7808 31.5875C96.488 31.3432 95.7645 31.2036 95.4372 31.3083Z" fill="#556BAF"/>
</g>
<defs>
<clipPath id="clip0_355_67">
<rect width="149" height="142" fill="white"/>
</clipPath>
</defs>
</svg>
