<svg width="147" height="128" viewBox="0 0 147 128" fill="none" xmlns="http://www.w3.org/2000/svg">
<path fill-rule="evenodd" clip-rule="evenodd" d="M146.996 64C146.996 99.3462 116.621 128 79.1503 128C78.679 128 78.2087 127.995 77.7396 127.986V115.983C78.2084 115.994 78.6786 116 79.1502 116C109.595 116 134.275 92.7188 134.275 64C134.275 35.2812 109.595 12 79.1502 12C53.4796 12 31.9072 28.5522 25.7729 50.9597C33.011 53.4479 38.1635 59.8558 38.1635 67.3684C38.1635 67.8218 38.1447 68.2711 38.1078 68.7158H28.9823V78.1474C28.9823 79.3217 28.0304 80.2737 26.856 80.2737C25.6817 80.2737 24.7297 79.3217 24.7297 78.1474V68.7158H13.4335V78.1474C13.4335 79.3217 12.4815 80.2737 11.3072 80.2737C10.1329 80.2737 9.18087 79.3217 9.18087 78.1474V68.7158H0.0556196C0.0187645 68.2711 0 67.8218 0 67.3684C0 59.7357 5.31847 53.2433 12.7392 50.8435C19.1707 21.8086 46.4606 0 79.1503 0C116.621 0 146.996 28.6538 146.996 64Z" fill="#556BAF"/>
<path d="M62.4245 54.6732C62.6272 53.8469 63.67 53.5815 64.243 54.2104L84.6255 76.5837C85.2436 77.2621 84.7694 78.3523 83.8516 78.3627L57.9103 78.6571C57.2157 78.665 56.7002 78.0155 56.8657 77.3408L62.4245 54.6732Z" fill="#556BAF"/>
<path d="M88.8288 56.4904C89.303 56.9823 90.1115 56.9056 90.4847 56.3333L104.938 34.1692C105.399 33.4621 104.892 32.5253 104.048 32.5253H68.2282C67.2903 32.5253 66.8119 33.6512 67.4627 34.3264L88.8288 56.4904Z" fill="#556BAF"/>
<path d="M89.6584 73.6468C90.106 74.0072 90.759 73.9467 91.1327 73.5102L105.11 57.1852C105.7 56.4955 105.21 55.4306 104.302 55.4306H70.0507C69.0474 55.4306 68.6025 56.6926 69.3839 57.3218L89.6584 73.6468Z" fill="#556BAF"/>
<path d="M57.7882 110.897C57.3266 112.026 58.819 112.917 59.5934 111.975L93.4421 70.8082C94.1432 69.9555 93.2408 68.7313 92.2188 69.1488L71.7929 77.4934C71.5287 77.6014 71.3189 77.811 71.2109 78.0752L57.7882 110.897Z" fill="#556BAF"/>
<rect width="7.05129" height="46.1081" rx="1.06316" transform="matrix(0.977116 0.212706 -0.232975 0.972483 67.5605 32.3369)" fill="#556BAF"/>
<rect x="67.8457" y="37.9148" width="21.2019" height="36.3789" fill="#556BAF"/>
</svg>
