<svg width="111" height="128" viewBox="0 0 111 128" fill="none" xmlns="http://www.w3.org/2000/svg">
<path d="M33.9611 0.248405C31.949 0.844574 30.6325 2.88148 30.8064 5.09227C31.03 7.72535 32.9675 9.43934 35.7496 9.43934H37.091L37.0413 23.2754C36.9668 38.4777 36.942 38.3038 38.3579 38.4529C40.0222 38.6268 39.9476 39.2478 39.9476 23.5735V9.43934H54.9761H70.0045V12.6437C70.0045 16.1214 70.1784 16.643 71.3707 16.643C72.563 16.643 72.7369 16.1214 72.7369 12.6437V9.43934H74.0534C79.3941 9.4145 81.1578 2.95601 76.463 0.54649L75.37 3.8147e-06L54.9761 0.0248413C43.7731 0.0248413 34.3089 0.124203 33.9611 0.248405ZM75.7178 3.47765C75.991 3.7509 76.2146 4.29738 76.2146 4.71967C76.2146 5.14196 75.991 5.68844 75.7178 5.96169C75.2209 6.4585 74.898 6.4585 54.9015 6.4585C34.8305 6.4585 34.5573 6.4585 34.1102 5.96169C33.8618 5.68844 33.663 5.11712 33.663 4.71967C33.663 4.32222 33.8618 3.7509 34.1102 3.47765C34.5573 2.98085 34.8305 2.98085 54.9015 2.98085C74.898 2.98085 75.2209 2.98085 75.7178 3.47765Z" fill="#556BAF"/>
<path d="M42.482 13.3144C41.9355 13.687 41.9355 13.7367 41.9355 20.8659C41.9355 28.7155 41.9604 28.8148 43.4011 28.8148C44.668 28.8148 44.668 28.7403 44.668 20.9901C44.668 14.2832 44.6431 13.7119 44.2209 13.3393C43.6495 12.8176 43.2024 12.8176 42.482 13.3144Z" fill="#556BAF"/>
<path d="M62.9246 17.736C61.1361 18.5309 59.8941 20.692 60.1673 22.4557C60.5648 24.7907 62.4278 26.5792 64.5144 26.5792H65.5329L65.4832 39.4217L65.4086 52.289L62.4775 59.7162L59.5215 67.1435L60.0183 67.7893C60.6145 68.5842 61.3845 68.7333 61.9807 68.1371C62.2291 67.8887 63.6947 64.4111 65.2596 60.4118L68.0914 53.1584L77.0091 53.2081L85.9268 53.2826L96.5336 80.2344L107.116 107.186V109.422C107.14 111.26 107.041 111.831 106.594 112.651C105.849 114.042 104.458 115.383 103.091 116.054L101.924 116.625L82.2007 116.7C60.4654 116.775 61.5584 116.675 61.5584 118.265C61.5584 119.78 60.7883 119.731 81.5797 119.731C93.3044 119.731 101.005 119.631 101.825 119.482C104.781 118.936 107.761 116.7 109.078 114.117C109.898 112.477 110.345 110.117 110.171 108.329C110.047 107.211 107.389 100.181 99.1915 79.2159L88.386 51.5686V39.0739V26.5792H89.3796C90.7707 26.5792 92.2362 25.7595 93.0311 24.5423C93.6025 23.6977 93.7267 23.2257 93.7267 21.9837C93.7267 20.7417 93.6025 20.2697 93.0311 19.4252C92.6585 18.8538 91.9133 18.1583 91.3668 17.8851C90.4229 17.4131 89.9509 17.3883 77.0339 17.3883C66.4023 17.4131 63.5208 17.4876 62.9246 17.736ZM90.2242 20.6423C90.6961 21.015 90.87 21.3876 90.87 21.9837C90.87 22.5799 90.6961 22.9525 90.2242 23.3251C89.5783 23.8467 89.3299 23.8468 76.9594 23.8468C64.5889 23.8468 64.3405 23.8467 63.6947 23.3251C62.6762 22.5302 62.9246 20.8659 64.117 20.3691C64.415 20.2449 70.2774 20.1455 77.1085 20.1455C89.3299 20.1207 89.5783 20.1207 90.2242 20.6423ZM85.4051 38.5522V50.4259H76.9594H68.5137V38.5522V26.7034H76.9594H85.4051V38.5522Z" fill="#556BAF"/>
<path d="M81.581 28.7155C81.2333 29.0384 81.1836 30.2804 81.1836 38.3784C81.1836 48.4636 81.1836 48.4387 82.5498 48.4387C83.916 48.4387 83.916 48.4636 83.916 38.279C83.916 31.3237 83.8415 28.8397 83.6179 28.6161C83.1957 28.1938 82.0282 28.2435 81.581 28.7155Z" fill="#556BAF"/>
<path d="M17.7149 39.7198C14.7589 41.086 13.9144 44.7872 16.0506 47.0228C16.771 47.7929 18.3359 48.6871 18.9569 48.6871C19.2799 48.6871 19.3296 49.5317 19.3296 55.4686V62.2251L18.1621 62.8461C14.4857 64.7588 10.71 67.839 7.92783 71.1925C1.24578 79.2656 -1.3873 89.6489 0.69929 99.8583C3.43173 113.222 13.8398 123.63 27.353 126.462C30.6319 127.158 36.7178 127.232 40.0961 126.611C54.3545 124.028 65.3091 112.875 67.7931 98.3678C68.3147 95.3373 68.1905 89.2763 67.5695 86.2706C65.4829 76.6077 59.6703 68.4849 51.3239 63.641L48.8896 62.2251V55.4934V48.7617L49.8832 48.4636C52.5659 47.6687 54.0067 44.7624 52.9882 42.2783C52.4666 41.0611 51.6965 40.2663 50.5042 39.7198C49.5603 39.2975 48.5667 39.2478 34.1096 39.2478C19.6525 39.2478 18.6589 39.2975 17.7149 39.7198ZM49.8832 42.7254C50.1564 42.9987 50.38 43.5452 50.38 43.9675C50.38 44.3898 50.1564 44.9362 49.8832 45.2095C49.3864 45.7063 49.0635 45.7063 34.0102 45.7063H18.6092L18.2366 45.1598C17.6901 44.3898 17.7398 43.3216 18.3359 42.7254C18.8327 42.2286 19.1557 42.2286 34.1096 42.2286C49.0635 42.2286 49.3864 42.2286 49.8832 42.7254ZM45.9087 55.866C45.9087 59.8156 46.0081 63.3181 46.1323 63.641C46.2813 64.0136 47.0762 64.585 48.4176 65.2805C56.8633 69.7021 62.9492 77.8497 64.8122 87.3139C65.3339 89.9221 65.2842 96.48 64.7129 99.1131C61.5333 113.918 49.0138 124.202 34.1096 124.202C25.5893 124.202 18.1869 121.122 12.101 115.036C6.01513 108.925 2.93492 101.547 2.93492 93.0023C2.93492 84.3082 6.28837 76.5332 12.6723 70.3976C14.9577 68.1868 16.7213 66.9448 19.7022 65.3302C20.7951 64.734 21.8384 64.0882 22.0123 63.8894C22.2359 63.5913 22.3104 61.6538 22.3104 56.0896V48.6871H34.1096H45.9087V55.866Z" fill="#556BAF"/>
<path d="M41.6117 50.6246C41.2391 51.0221 41.1895 51.7673 41.1895 55.8163C41.1895 60.064 41.2391 60.5856 41.6366 60.9334C42.1831 61.4302 42.9283 61.4799 43.4996 61.0327C43.8722 60.7843 43.9219 60.1136 43.9716 55.7914C44.0213 51.2208 43.9964 50.8482 43.5493 50.5253C42.9034 50.0533 42.0837 50.103 41.6117 50.6246Z" fill="#556BAF"/>
<path d="M23.975 52.115C23.3788 52.7609 23.4533 53.8041 24.0992 54.2513C24.8444 54.7729 25.1922 54.7481 25.7883 54.1519C26.459 53.4812 26.4342 52.5373 25.7387 52.0653C25.0183 51.5437 24.4718 51.5685 23.975 52.115Z" fill="#556BAF"/>
<path d="M23.9006 56.4124C23.205 57.1825 23.205 60.4862 23.9006 61.0079C24.5712 61.4799 25.391 61.455 25.8629 60.9085C26.1859 60.5608 26.2852 59.9646 26.2852 58.5487C26.2852 56.8844 26.2107 56.6111 25.7387 56.2882C24.9935 55.7417 24.4719 55.7914 23.9006 56.4124Z" fill="#556BAF"/>
<path d="M52.1183 73.0307C51.3483 73.8007 51.4973 74.3721 52.8884 75.937C59.8933 83.9356 61.4583 94.5673 56.987 103.957C53.7578 110.763 47.7464 115.682 40.3191 117.669C38.158 118.24 37.3631 118.315 34.109 118.315C30.9046 118.315 30.0352 118.215 27.9735 117.669C23.7009 116.551 20.0991 114.564 16.7705 111.558C15.0317 109.968 14.2368 109.695 13.5164 110.44C12.7463 111.21 13.0196 112.055 14.5348 113.496C19.2297 117.917 25.3652 120.674 31.7492 121.196C46.3057 122.364 59.2475 112.427 61.9302 97.9952C62.5016 95.0392 62.3277 88.9037 61.6073 86.3203C60.2908 81.4516 57.8067 76.8809 54.8507 73.8256C53.4845 72.4345 52.8884 72.2606 52.1183 73.0307Z" fill="#556BAF"/>
<path d="M54.1066 92.0335C53.9328 92.257 53.6844 93.4991 53.5602 94.8156C52.8398 102.789 47.3252 109.521 39.6992 111.782C37.5381 112.427 36.9668 112.85 36.9668 113.769C36.9668 115.135 38.0598 115.359 40.8419 114.489C49.4615 111.831 55.7958 103.808 56.5162 94.7162C56.6404 92.9277 56.5907 92.58 56.2181 92.1577C55.6964 91.5615 54.5538 91.5118 54.1066 92.0335Z" fill="#556BAF"/>
<path d="M83.2203 59.2691C82.9222 59.4678 82.6738 59.9149 82.6738 60.213C82.6738 61.2563 83.8413 63.9391 84.4872 64.4359C85.1082 64.883 85.1579 64.883 85.7789 64.4856C86.1266 64.262 86.4992 63.8894 86.5738 63.6907C86.7725 63.169 85.4559 59.8404 84.8598 59.2939C84.2388 58.7723 83.9407 58.7723 83.2203 59.2691Z" fill="#556BAF"/>
<path d="M85.7781 66.4976C85.48 66.7709 85.4055 67.1435 85.48 67.6651C85.7284 69.0313 101.552 109.173 101.999 109.496C102.595 109.943 103.291 109.77 103.862 108.999L104.359 108.329L96.4594 88.1336C88.3615 67.4167 88.0137 66.5721 87.5418 66.2741C87.0698 65.9511 86.2004 66.0505 85.7781 66.4976Z" fill="#556BAF"/>
<path d="M82.425 73.9001C82.2512 74.0988 82.127 74.5211 82.127 74.844C82.127 75.2911 84.6358 81.8738 92.0631 100.852C93.4542 104.404 94.0255 105.025 95.193 104.255C95.6153 103.957 95.8388 103.609 95.8388 103.187C95.8388 102.417 85.0084 74.5956 84.4619 73.9498C83.99 73.4281 82.8473 73.4033 82.425 73.9001Z" fill="#556BAF"/>
</svg>
