<svg width="134" height="143" viewBox="0 0 134 143" fill="none" xmlns="http://www.w3.org/2000/svg">
<g clip-path="url(#clip0_149_748)">
<ellipse cx="66.6997" cy="88.0449" rx="26.6802" ry="21.3442" fill="#556BAF"/>
<ellipse cx="36.685" cy="124.063" rx="23.3452" ry="18.6761" fill="#556BAF"/>
<ellipse cx="97.3833" cy="124.063" rx="24.0122" ry="18.6761" fill="#556BAF"/>
<path fill-rule="evenodd" clip-rule="evenodd" d="M82.6502 12.2206H82.601C81.7682 5.33456 75.5875 0.000119261 67.3099 0.00012207C58.7185 0.000127701 50.6919 5.74667 50.5019 13.0102L40.0195 75.6937C46.1076 67.7998 55.7669 62.6986 66.642 62.6986C77.6748 62.6986 87.4563 67.9488 93.527 76.0387H93.9893L82.6502 12.2206Z" fill="#556BAF"/>
<path fill-rule="evenodd" clip-rule="evenodd" d="M42.6865 44.0225C34.3582 44.1809 27.6878 48.1121 27.6603 53.3233L13.3359 109.264C18.2612 103.675 26.1749 100.051 35.0981 100.051C36.2295 100.051 37.3446 100.109 38.4395 100.222L37.8022 99.3839L37.1261 97.3829L36.4501 95.3819L35.774 91.3798V88.2738L39.5041 65.6465L42.6865 44.0225Z" fill="#556BAF"/>
<path fill-rule="evenodd" clip-rule="evenodd" d="M92.0475 44.0225C100.377 44.1809 107.049 48.1134 107.074 53.3259L121.396 109.261C116.471 103.674 108.559 100.051 99.6375 100.051C98.5062 100.051 97.3911 100.109 96.2962 100.222L96.9336 99.3839L97.6096 97.3829L98.2857 95.3819L98.9617 91.3798V88.2876L95.2342 65.6757L92.0475 44.0225Z" fill="#556BAF"/>
</g>
<defs>
<clipPath id="clip0_149_748">
<rect y="0.00012207" width="134" height="142.739" rx="29" fill="white"/>
</clipPath>
</defs>
</svg>
