<svg width="142" height="142" viewBox="0 0 142 142" fill="none" xmlns="http://www.w3.org/2000/svg">
<path fill-rule="evenodd" clip-rule="evenodd" d="M71 142C110.212 142 142 110.212 142 71C142 31.7878 110.212 0 71 0C31.7878 0 0 31.7878 0 71C0 110.212 31.7878 142 71 142ZM71 130.971C104.121 130.971 130.971 104.121 130.971 71C130.971 37.879 104.121 11.0291 71 11.0291C37.879 11.0291 11.0291 37.879 11.0291 71C11.0291 104.121 37.879 130.971 71 130.971ZM79.1364 71.5C79.1364 69.0459 79.176 66.3195 80.8268 64.5036L97.1849 46.5097L78.427 62.3059C76.5791 63.8621 73.9164 63.8641 71.5005 63.8641V63.8641C67.2833 63.8641 63.8646 67.2828 63.8646 71.5V71.5C63.8646 73.1332 63.5091 74.8684 62.2599 75.9204L60.2952 77.5749C58.8546 78.788 58.7611 80.9742 60.0928 82.3059V82.3059C61.3904 83.6035 63.5092 83.5531 64.7435 82.1953L65.9103 80.9118C67.2711 79.4149 69.4775 79.1359 71.5005 79.1359V79.1359C75.7177 79.1359 79.1364 75.7172 79.1364 71.5V71.5ZM73.5829 18.7427C73.5829 17.5926 72.6505 16.6602 71.5004 16.6602V16.6602C70.3503 16.6602 69.4179 17.5926 69.4179 18.7427V19.5165C69.4179 21.048 68.2082 22.298 66.6839 22.4458C56.4069 23.4421 47.0536 27.5948 39.6057 33.9223C38.4268 34.9238 36.6801 34.9532 35.5324 33.9162L34.8817 33.3282C34.0283 32.5571 32.7114 32.6238 31.9403 33.4772V33.4772C31.1692 34.3306 31.236 35.6475 32.0894 36.4186L32.6137 36.8924C33.7506 37.9196 33.8392 39.6668 32.8862 40.8665C26.204 49.2779 22.2123 59.9228 22.2123 71.5V71.5C22.2123 72.6362 21.3086 73.5825 20.1724 73.5825H18.7427C17.5925 73.5825 16.6602 74.5149 16.6602 75.665V75.665C16.6602 76.8152 17.5925 77.7475 18.7427 77.7475H19.8196C21.4112 77.7475 22.7432 78.9342 23.032 80.4994C24.6182 89.0965 28.4355 96.9117 33.861 103.322C34.7785 104.406 34.7717 106.018 33.7836 107.038L33.3812 107.453C32.581 108.279 32.6019 109.598 33.428 110.398V110.398C34.2541 111.198 35.5725 111.177 36.3728 110.351L42.1224 104.416C42.2125 104.323 42.2102 104.174 42.1172 104.084V104.084C42.0189 103.989 42.0227 103.831 42.1254 103.74L42.1769 103.695C42.3077 103.579 42.3121 103.377 42.1873 103.255C34.1544 95.4226 29.1538 84.4019 29.1538 72.1942C29.1538 48.4245 48.1121 29.1553 71.4984 29.1553C94.8847 29.1553 113.843 48.4245 113.843 72.1942C113.843 83.443 109.597 93.6838 102.646 101.352C102.644 101.353 102.642 101.353 102.641 101.352V101.352C102.639 101.351 102.637 101.351 102.635 101.352L102.526 101.483C101.684 102.404 100.802 103.288 99.8838 104.132C99.8112 104.198 99.8126 104.313 99.8871 104.378L99.9815 104.46C99.997 104.473 99.9989 104.497 99.9857 104.512V104.512C99.9724 104.528 99.9745 104.552 99.9904 104.565L103.528 107.531L104.343 108.237C104.346 108.24 104.352 108.24 104.356 108.237V108.237C104.36 108.234 104.365 108.234 104.369 108.237L106.473 110.001C107.355 110.74 108.668 110.625 109.407 109.744V109.744C110.146 108.862 110.031 107.549 109.149 106.81L109.102 106.77C108.157 105.978 108.077 104.556 108.882 103.621C114.442 97.1554 118.354 89.2312 119.965 80.5007C120.254 78.9348 121.587 77.7476 123.179 77.7476H124.258C125.408 77.7476 126.34 76.8152 126.34 75.665V75.665C126.34 74.5149 125.408 73.5825 124.258 73.5825H122.825C121.689 73.5825 120.785 72.6362 120.785 71.5V71.5C120.785 59.7845 116.697 49.0237 109.871 40.5661C108.958 39.4349 109.031 37.7774 110.102 36.7939L110.522 36.4082C111.369 35.6301 111.425 34.3127 110.646 33.4657V33.4657C109.868 32.6187 108.551 32.5628 107.704 33.3409L107.174 33.8275C106.093 34.8206 104.434 34.804 103.313 33.8558C95.879 27.5664 86.5565 23.4396 76.3168 22.4461C74.7926 22.2982 73.5829 21.0481 73.5829 19.5167V18.7427Z" fill="#556BAF"/>
</svg>
