<svg width="143" height="143" viewBox="0 0 143 143" fill="none" xmlns="http://www.w3.org/2000/svg">
<path fill-rule="evenodd" clip-rule="evenodd" d="M71.5 143C110.988 143 143 110.988 143 71.5001C143 32.0118 110.988 0.00012207 71.5 0.00012207C32.0116 0.00012207 0 32.0118 0 71.5001C0 110.988 32.0116 143 71.5 143ZM71.5 131.893C104.854 131.893 131.893 104.854 131.893 71.5001C131.893 38.1459 104.854 11.1069 71.5 11.1069C38.1457 11.1069 11.1068 38.1459 11.1068 71.5001C11.1068 104.854 38.1457 131.893 71.5 131.893ZM79.1364 71.5001C79.1364 69.046 79.176 66.3196 80.8268 64.5037L97.1849 46.5098L78.427 62.3061C76.5791 63.8622 73.9164 63.8642 71.5005 63.8642C67.2833 63.8642 63.8646 67.2829 63.8646 71.5001C63.8646 73.1333 63.5091 74.8685 62.2599 75.9205L60.2952 77.575C58.8546 78.7882 58.7611 80.9743 60.0928 82.306C61.3904 83.6036 63.5092 83.5532 64.7435 82.1954L65.9103 80.9119C67.2711 79.415 69.4775 79.1361 71.5005 79.1361C75.7177 79.1361 79.1364 75.7173 79.1364 71.5001ZM73.5829 18.7428C73.5829 17.5927 72.6505 16.6603 71.5004 16.6603C70.3503 16.6603 69.4179 17.5927 69.4179 18.7428V19.5167C69.4179 21.0481 68.2082 22.2981 66.6839 22.4459C56.4069 23.4423 47.0536 27.5949 39.6057 33.9224C38.4268 34.9239 36.6801 34.9533 35.5324 33.9163L34.8817 33.3283C34.0283 32.5572 32.7114 32.624 31.9403 33.4774C31.1692 34.3307 31.236 35.6476 32.0894 36.4187L32.6137 36.8925C33.7506 37.9197 33.8392 39.6669 32.8862 40.8666C26.204 49.278 22.2123 59.9229 22.2123 71.5001C22.2123 72.6363 21.3086 73.5826 20.1724 73.5826H18.7427C17.5925 73.5826 16.6602 74.515 16.6602 75.6651C16.6602 76.8153 17.5925 77.7477 18.7427 77.7477H19.8196C21.4112 77.7477 22.7432 78.9343 23.032 80.4995C24.6182 89.0966 28.4355 96.9118 33.861 103.322C34.7785 104.406 34.7717 106.018 33.7836 107.038L33.3812 107.453C32.581 108.279 32.6019 109.598 33.428 110.398C34.2541 111.198 35.5725 111.177 36.3728 110.351L40.0222 106.584C41.5964 105.198 41.6171 102.762 40.2156 101.201C33.3444 93.5503 29.1538 83.3697 29.1538 72.1943C29.1538 48.4246 48.1121 29.1555 71.4984 29.1555C94.8847 29.1555 113.843 48.4246 113.843 72.1943C113.843 83.4431 109.597 93.684 102.646 101.352C102.644 101.353 102.642 101.353 102.641 101.352C102.639 101.351 102.637 101.351 102.635 101.352L102.526 101.483C101.684 102.404 100.802 103.288 99.8838 104.132C99.8112 104.199 99.8126 104.314 99.8871 104.378L99.9815 104.46C99.997 104.473 99.9989 104.497 99.9857 104.512C99.9724 104.528 99.9745 104.552 99.9904 104.565L103.528 107.531L104.343 108.237C104.346 108.241 104.352 108.24 104.356 108.237C104.36 108.234 104.365 108.234 104.369 108.237L106.473 110.001C107.355 110.74 108.668 110.625 109.407 109.744C110.146 108.862 110.031 107.549 109.149 106.81L109.102 106.77C108.157 105.978 108.077 104.556 108.882 103.621C114.442 97.1555 118.354 89.2314 119.965 80.5009C120.254 78.9349 121.587 77.7477 123.179 77.7477H124.258C125.408 77.7477 126.34 76.8153 126.34 75.6652C126.34 74.515 125.408 73.5826 124.258 73.5826H122.825C121.689 73.5826 120.785 72.6363 120.785 71.5001C120.785 59.7846 116.697 49.0238 109.871 40.5662C108.958 39.435 109.031 37.7775 110.102 36.794L110.522 36.4083C111.369 35.6302 111.425 34.3129 110.646 33.4658C109.868 32.6188 108.551 32.5629 107.704 33.341L107.174 33.8276C106.093 34.8207 104.434 34.8041 103.313 33.8559C95.879 27.5665 86.5565 23.4397 76.3168 22.4462C74.7926 22.2983 73.5829 21.0483 73.5829 19.5168V18.7428Z" fill="#556BAF"/>
</svg>
