<svg width="127" height="125" viewBox="0 0 127 125" fill="none" xmlns="http://www.w3.org/2000/svg">
<path d="M73.0182 79.7336C72.5174 80.2275 72.5174 81.0286 73.0182 81.5226L94.9097 103.137C95.4105 103.631 96.2213 103.631 96.7216 103.137C97.2224 102.643 97.2224 101.842 96.7216 101.348L74.8301 79.7336C74.3298 79.2397 73.5189 79.2397 73.0182 79.7336Z" fill="#556BAF"/>
<path d="M105.806 94.1682C106.306 93.6743 106.306 92.8732 105.806 92.3792L83.9141 70.7651C83.4133 70.2707 82.6024 70.2707 82.1021 70.7651C81.6014 71.259 81.6014 72.0601 82.1021 72.5541L103.994 94.1682C104.494 94.6621 105.305 94.6621 105.806 94.1682Z" fill="#556BAF"/>
<path d="M120.541 92.1157L88.3715 61.1137C87.8902 60.638 88.7921 61.4683 88.1882 62.4537C86.9068 63.4659 86.9836 62.6348 87.6757 63.4659C87.8544 63.6805 93.7291 69.2162 93.7291 69.2162L118.732 93.9072C121.141 96.2756 122.735 99.2715 123.345 102.561C114.159 105.333 106.762 112.475 103.883 121.776C100.546 121.169 97.5118 119.595 95.113 117.222L66.0507 88.5277C63.9241 86.4326 62.4115 83.8061 61.6683 80.9266V80.9165C60.3351 75.6706 57.4428 72.7784 55.4335 70.7951C67.5561 58.8261 64.085 62.2527 71.7094 54.7275L72.6582 55.6637C73.8729 56.8631 75.2261 57.8975 76.6936 58.7472C80.8028 61.1348 83.6267 60.9561 87.2715 63.0917C87.9053 63.4631 89.0987 63.8353 89.4421 63.2584C89.8009 62.6648 88.2934 60.862 87.6808 60.5017C84.7003 58.7588 82.8351 58.5943 81.015 57.9537L99.2032 39.9908C103.813 41.5222 108.972 41.4189 113.642 39.5505C116.22 38.5182 118.537 37.005 120.521 35.0465C120.608 34.9605 122.984 31.9442 123.042 31.8367C125.093 28.0412 123.059 29.8243 123.042 29.8124C122.246 29.2227 122.054 29.8869 121.896 30.0654C121.866 30.1004 118.744 33.2303 118.706 33.2551C113.402 38.4847 105.763 39.7656 99.3263 37.3491C98.865 37.1771 98.3114 37.2985 97.9628 37.6376L78.5178 56.8418C76.9473 56.0007 75.5557 54.9421 74.4721 53.8722L73.5157 52.9284C76.0411 50.1845 75.7412 45.9422 73.0421 43.5282L88.5061 28.2602C88.8592 27.911 88.9725 27.3847 88.7982 26.9191C86.4276 20.6843 87.6352 13.3605 92.4882 8.24015C96.868 3.63747 103.011 1.81917 108.783 2.77462C109.165 2.8308 109.315 3.29435 109.029 3.58939L97.4498 15.0215C96.9521 15.5174 96.9521 16.317 97.4498 16.8129L109.571 28.7865C110.053 29.2622 110.894 29.2672 111.386 28.7865L122.965 17.3544C123.26 17.0634 123.743 17.2365 123.801 17.6075C124.189 19.949 122.877 26.861 122.274 29.3063C120.992 31.0776 121.264 31.0307 122.246 31.3762C123.555 31.8367 124.16 29.4683 124.324 28.8003C124.997 26.0918 126.784 19.9541 126.332 17.1975C125.913 14.7355 122.865 13.8545 121.15 15.5629L110.48 26.0993L100.167 15.9172L110.844 5.38087C112.598 3.66429 111.634 0.665841 109.198 0.274651C102.546 -0.810864 95.5277 1.33233 90.623 6.5094C85.3841 12.0362 83.7536 19.9333 86.1227 27.0355L70.7673 42.1962C68.3526 41.3622 65.5822 41.9478 63.7509 43.762L58.5786 48.8687L42.7138 33.2044C38.1564 28.5472 41.3862 32.7287 40.9044 33.2044C40.4021 33.7004 36.2759 30.5816 36.7782 31.0776L56.7667 50.6572L51.313 56.0417L20.2328 25.3553C20.0841 25.2086 19.9047 25.1023 19.7048 25.0416L14.754 23.5386L6.17828 10.0903L11.0476 5.78876L23.8515 14.571L25.5065 19.5963C25.568 19.7886 25.6757 19.9607 25.8192 20.1024L33.6568 27.8351C34.1381 28.3158 41.0768 36.1018 42.5702 34.8731C44.1079 33.6079 35.9515 26.5274 35.4656 26.0487L27.8495 18.5285L26.1939 13.5032C26.1324 13.3109 26.0247 13.1389 25.8817 12.9972L12.329 3.76449C11.8472 3.28373 11.2731 2.77766 10.7913 3.25843L3.61547 10.0903C3.13776 10.5615 3.60675 10.8307 4.12803 11.3555L13.1692 25.5476C13.3178 25.6944 13.4977 25.8007 13.6971 25.8665L18.6433 27.3695L49.498 57.8332L44.3299 62.9354C42.4882 64.7486 41.8957 67.4849 42.7425 69.867L27.4138 84.9969C12.6269 80.0865 -2.25076 92.4801 0.283863 107.795C0.682636 110.207 3.70675 111.163 5.4633 109.427L16.1364 98.8899L26.4461 109.074L15.7755 119.609C14.0164 121.338 14.9739 124.323 17.4137 124.715C32.8931 127.235 45.4391 112.629 40.4944 97.9568L58.7026 79.9787C58.8866 80.4888 59.0481 81.006 59.1809 81.5283L59.186 81.5384C60.0317 84.8633 61.7801 87.8997 64.2347 90.3187L93.297 119.013C100.734 126.354 112.878 126.662 120.48 119.148C127.916 111.816 128.147 99.5995 120.541 92.1157ZM46.1423 64.7259L65.5643 45.55C67.0692 44.0596 69.6207 43.8815 71.3378 45.4219C73.0482 46.9599 73.1876 49.6871 71.4685 51.3819C71.4685 51.3819 52.0993 70.5087 52.0491 70.5578C50.0537 72.5269 46.7025 72.0102 45.3955 69.5669C44.5487 67.9829 44.8558 65.9925 46.1423 64.7259ZM37.8183 98.0716C42.7871 111.137 31.6629 124.472 17.8289 122.218C17.4398 122.155 17.3107 121.672 17.5864 121.401L29.1652 109.969C29.666 109.475 29.666 108.674 29.1657 108.18L17.0441 96.2063C16.5439 95.7118 15.732 95.7118 15.2317 96.2063L3.65191 107.638C3.36744 107.919 2.87691 107.766 2.81387 107.387C0.546295 93.6921 14.142 82.7105 27.2918 87.6406C27.7618 87.8167 28.2954 87.7048 28.6526 87.3526L44.0926 72.1129C46.496 74.7455 50.7969 75.0972 53.6139 72.5795C54.8174 73.7678 56.208 75.0289 57.5745 77.5167L38.1125 96.7326C37.7568 97.0833 37.642 97.6071 37.8183 98.0716ZM118.733 117.223C115.462 120.457 111.069 122.166 106.494 122.041C109.128 114.034 115.506 107.738 123.616 105.138C123.742 109.595 121.977 114.023 118.733 117.223Z" fill="#556BAF"/>
</svg>
