<svg width="150" height="140" viewBox="0 0 150 140" fill="none" xmlns="http://www.w3.org/2000/svg">
<path d="M33.1864 0.39433C33.2615 0.673003 33.393 1.19551 33.4869 1.52644C34.7825 6.3858 36.3599 13.6836 36.9232 17.4631C37.6555 22.2702 37.8621 26.4677 37.4114 27.7217C37.1485 28.5055 36.7354 28.61 35.1581 28.3487C31.6466 27.7565 26.4264 25.5794 18.8214 21.5561C16.6995 20.4414 14.7654 19.4312 14.5025 19.3093C14.2396 19.1873 15.6104 20.5633 17.5257 22.3573C23.2342 27.7391 26.0321 30.5084 28.7173 33.4171C32.9047 37.9455 35.5524 41.4115 35.8341 42.7875C35.928 43.2229 35.8716 43.3274 35.3834 43.5712C32.6982 44.8601 21.4127 45.5394 7.91152 45.2085C4.02452 45.1214 0.513079 45.0691 0.118745 45.104C-0.42581 45.1388 0.851079 45.4871 5.01975 46.4276C18.6149 49.5279 27.1963 51.8792 30.6514 53.4816C32.2287 54.1957 32.2475 54.2131 32.1912 54.8227C32.0597 56.425 29.7501 61.7024 26.4264 68.0074C25.2434 70.2368 24.3045 72.0656 24.3421 72.0656C24.3609 72.0656 25.3373 71.665 26.5203 71.1773C33.7122 68.2164 41.5237 65.6213 43.2513 65.6213C44.4531 65.6213 45.8614 76.4198 47.082 95.0387C47.3449 98.9227 47.5514 102.232 47.5514 102.424C47.5514 103.225 47.7955 102.406 48.4903 99.3059C50.4432 90.5625 51.4947 86.2953 52.8092 81.9062C55.2127 73.8247 57.5036 68.5996 58.743 68.3035C60.8085 67.8158 66.2729 71.0554 72.9014 76.6463C73.9717 77.5694 74.8919 78.2835 74.9294 78.2661C74.9482 78.2312 74.3097 76.6463 73.5023 74.7478C70.9861 68.8957 69.3336 63.9144 69.3336 62.1901C69.3336 61.3541 68.3196 59.3511 67.8877 59.3511C67.2493 59.3511 66.517 60.6748 66.517 61.8069C66.517 62.7126 67.0991 65.3948 67.7563 67.4326C68.1131 68.5647 68.376 69.5401 68.3196 69.5749C68.2821 69.6272 67.6249 69.2788 66.855 68.7912C62.7051 66.196 59.3063 65.2381 57.3722 66.0915C55.1564 67.0669 52.659 72.6055 49.3916 83.735L49.1663 84.5188L49.0161 83.1254C48.941 82.3591 48.6969 80.0426 48.4903 77.9874C47.5514 69.0002 46.3496 64.1234 44.9225 63.4441C43.4766 62.7474 39.1014 63.6531 32.7357 65.987C31.4589 66.4573 30.351 66.8405 30.2759 66.8405C30.182 66.8405 30.6139 65.8477 31.2147 64.6111C33.5995 59.6995 34.9703 55.92 34.9703 54.2131C34.9703 53.7254 34.8389 53.3248 34.5572 52.9939C33.562 51.8095 30.7265 50.5729 25.0556 48.8138C21.6569 47.7688 21.5817 47.821 26.4452 47.5249C33.0737 47.1069 37.7119 45.8355 38.3691 44.2331C39.2516 42.1256 36.0594 37.0747 29.6374 30.4562C28.9614 29.7421 28.4169 29.1325 28.4732 29.0977C28.5107 29.0628 29.0553 29.2196 29.675 29.4634C32.9799 30.7523 36.8481 31.3096 38.1625 30.6652C38.8949 30.3169 39.5709 29.4634 39.8525 28.5403C40.5473 26.2761 40.4722 22.0089 39.6835 16.9405C39.4957 15.791 39.3643 14.8331 39.3831 14.7982C39.4019 14.7808 40.1717 15.8781 41.0731 17.2366C43.3264 20.633 46.6501 25.2311 47.8519 26.6244C49.2226 28.2094 49.8799 28.6971 50.6873 28.6971C51.645 28.6971 52.3022 28.2616 53.1096 27.0947L53.842 26.0671L54.1612 28.1223C55.194 34.4795 56.5835 38.4332 58.1233 39.3737C58.6115 39.6698 59.8321 39.8266 60.0386 39.635C60.2452 39.4608 59.6631 37.4404 59.1749 36.6218C57.7102 34.166 56.4145 26.4677 55.6259 15.5472C55.2127 9.8518 55.0625 8.12751 54.9499 8.40618C54.9123 8.49327 54.4053 11.1581 53.842 14.328C52.7529 20.302 51.983 23.4197 51.1943 25.0395L50.7249 25.98L50.2554 25.4749C49.5419 24.6563 44.9976 18.2817 42.9884 15.2511C41.9932 13.7532 39.4394 9.7473 37.2987 6.36839C35.1769 2.98947 33.3554 0.133074 33.2427 0.0459882C33.1301 -0.0759313 33.1113 0.0459882 33.1864 0.39433Z" fill="#556BAF"/>
<path d="M97.3133 26.7289C97.1631 26.7812 94.9285 27.6346 92.3372 28.6099C89.7646 29.6027 85.3143 31.2748 82.4788 32.3546C79.6434 33.4345 77.1647 34.4272 76.9957 34.584C76.3009 35.1413 76.3761 35.8206 77.4088 38.0848C77.9346 39.2692 78.3477 40.2445 78.3102 40.2794C78.2726 40.2968 77.3713 40.6451 76.2822 41.0631C75.1931 41.4637 70.2921 43.3274 65.3911 45.191C56.4528 48.6047 55.3262 49.0227 49.2422 51.3218C46.0124 52.541 45.2988 52.959 45.2988 53.6209C45.2988 54.0563 45.9561 54.6485 46.4443 54.6485C46.6696 54.6485 52.3405 52.5584 59.0817 49.9981C65.8042 47.4552 73.0148 44.7207 75.0992 43.9195C77.1835 43.1358 78.9674 42.4391 79.0613 42.3868C79.2303 42.2823 79.3993 42.5784 80.5823 45.2607C81.2771 46.8108 81.6902 47.2288 82.5352 47.2114C82.8732 47.2114 85.0138 46.4973 87.3047 45.609C89.5956 44.7381 91.6612 44.024 91.9053 44.024C92.4686 44.024 93.1071 44.4421 93.4451 45.0342C93.5953 45.2955 96.2993 51.3741 99.4727 58.5673C102.646 65.7431 105.651 72.5706 106.176 73.7202C106.683 74.8697 107.885 77.6042 108.862 79.8161C111.885 86.6959 112.711 88.5072 113.012 88.8033C113.5 89.3084 114.232 89.3084 115.678 88.7859C116.41 88.5247 117.068 88.3505 117.105 88.4202C117.143 88.4724 117.368 89.0646 117.593 89.7439C118.344 91.8513 119.828 95.0386 121.274 97.686C124.823 104.13 128.954 108.467 134.024 111.08C137.892 113.065 140.728 115.991 142.943 120.224C144.483 123.202 145.666 126.79 146.192 130.151L146.436 131.719L148.126 131.649C149.046 131.632 149.854 131.562 149.91 131.527C150.06 131.458 149.609 128.479 149.215 126.755C148.295 122.889 146.136 118.081 143.976 115.086C142.793 113.466 140.014 110.749 138.531 109.773C137.911 109.373 136.465 108.502 135.301 107.875C129.48 104.67 124.353 97.7557 120.955 88.4724L120.429 87.0268L121.311 86.6785C121.8 86.4694 122.494 86.2082 122.851 86.0689C123.208 85.9295 123.64 85.6857 123.828 85.5463C124.579 84.9019 124.485 84.5362 121.987 78.9279C120.692 75.967 119.133 72.4487 118.532 71.1076C117.95 69.7665 116.88 67.3803 116.185 65.7954C115.49 64.2104 114.251 61.4237 113.462 59.6123C107.66 46.445 99.5103 28.0526 99.2849 27.6694C99.1535 27.4082 98.9094 27.1121 98.7779 27.0076C98.4587 26.7637 97.6701 26.6244 97.3133 26.7289Z" fill="#556BAF"/>
</svg>
