<svg width="156" height="91" viewBox="0 0 156 91" fill="none" xmlns="http://www.w3.org/2000/svg">
<path d="M49.1146 0.70237C17.8155 0.824394 8.29762 0.946419 7.47396 1.25148C5.94866 1.77008 3.50818 3.53943 2.50149 4.82068C2.01339 5.43079 1.28125 6.68154 0.823661 7.65773L0 9.39657V20.5312C0 31.6049 0 31.6659 0.732143 33.4963C1.73884 35.9673 4.54539 38.8043 6.86384 39.6585C8.32812 40.2076 8.54167 40.3906 8.45015 41.0007C8.38914 41.3973 6.55878 51.5558 4.36235 63.5446C1.70833 78.3095 0.457589 85.814 0.549107 86.7597C0.701637 88.468 1.58631 89.8408 3.02009 90.5119C3.93527 90.939 5.6131 91 15.8326 91C28.6451 91 28.7671 90.9695 30.4754 89.2917C33.7396 86.0275 32.2143 80.2924 27.7604 79.0722C26.7537 78.7976 26.6622 78.6756 26.7842 77.9435C26.8757 77.4859 27.8214 72.3609 28.8586 66.5342L30.7805 55.9792L35.9055 55.8571C40.6644 55.7656 41.061 55.7046 41.6711 55.0945C42.4643 54.3013 42.4948 53.5997 41.7932 50.8542C41.2135 48.5967 41.0915 43.3497 41.5796 41.7329L41.8237 40.8177L52.8058 40.6347C66.3199 40.4211 66.1064 40.4821 78.7359 35.4487C83.7693 33.4658 87.9792 31.8184 88.1012 31.8184C88.2232 31.8184 88.3147 32.7031 88.3147 33.8013V35.7842H86.881C84.1964 35.7842 82.6711 37.2485 83.4033 39.0484C83.8609 40.2076 84.8676 40.6652 86.7894 40.6652H88.3147V59.7314C88.3147 76.1436 88.2537 78.7976 87.8876 78.7976C87.6436 78.7976 87.064 79.1332 86.6064 79.4993C85.5387 80.4144 85.4777 81.9092 86.4539 82.8549C87.0945 83.526 87.2775 83.526 95.6667 83.526H104.239L104.818 82.7939C105.673 81.7262 105.581 80.2009 104.605 79.4382C104.147 79.0722 103.598 78.7976 103.385 78.7976C103.019 78.7976 102.958 75.625 102.958 59.7314V40.6652H104.483C106.374 40.6652 107.411 40.2076 107.839 39.1094C108.601 37.3095 107.045 35.7842 104.422 35.7842H102.958V30.5982V25.4122H105.947C108.662 25.4122 109.303 25.2902 113.025 24.0394C115.618 23.1853 117.356 22.4226 117.692 22.026C118.028 21.599 118.211 20.8363 118.211 19.7381V18.0908L120.895 18.0603C122.359 18.0298 130.535 17.9687 139.077 17.9382L154.604 17.9077L155.306 17.0536C156.251 15.9859 156.221 14.8876 155.275 13.9725L154.543 13.2098H136.362H118.211V11.5625C118.211 9.03049 117.722 8.63392 112.781 6.9866C109.028 5.73586 108.327 5.58333 105.764 5.58333C103.263 5.58333 102.958 5.52232 102.958 5.03422C102.958 4.72916 102.653 4.18005 102.256 3.81398C101.585 3.20386 101.249 3.14285 97.2225 3.14285C93.2262 3.14285 92.8906 3.11234 92.8906 2.59374C92.8906 1.80059 91.7009 0.793892 90.6027 0.671867C90.1146 0.610855 71.4449 0.610855 49.1146 0.70237ZM55.3683 20.5312V35.7537L43.0134 35.8452C30.811 35.9368 30.6585 35.9368 30.0179 36.6079C29.4382 37.157 28.8281 40.1466 25.442 58.8772C23.276 70.744 21.5067 80.7805 21.5067 81.1771C21.5067 82.8549 22.8185 83.6786 25.442 83.6786C27.4859 83.6786 28.279 84.7768 27.1198 85.936C26.7232 86.3631 25.2589 86.4241 15.8631 86.4241H5.06399L5.21652 85.4174C5.30804 84.8988 5.43006 84.2582 5.52158 84.0446C5.58259 83.7701 6.83333 83.6786 10.2805 83.6786C15.314 83.6786 16.1376 83.465 16.9003 82.1228C17.2664 81.4516 17.2664 81.1466 16.9613 80.4144C16.3817 79.0112 15.5275 78.7976 10.8296 78.7976C8.2061 78.7976 6.55878 78.6756 6.55878 78.4926C6.55878 78.34 8.14509 69.4933 10.067 58.8467C11.9888 48.2001 13.5751 39.0484 13.5751 38.4687C13.5751 36.9129 12.8735 36.1503 11.1957 35.9062C8.2061 35.4792 6.31473 34.1979 5.27753 31.91C4.75893 30.7507 4.72842 29.8051 4.72842 20.5923C4.72842 15.0402 4.81994 10.2812 4.94196 9.94568C5.67411 7.96279 7.56548 6.19344 9.54836 5.58333C10.006 5.43079 20.5 5.30877 32.8854 5.30877L55.3683 5.27827V20.5312ZM88.3147 15.8943V26.5104L78.4918 30.4457C68.1808 34.5335 65.7098 35.3571 62.3237 35.6622L60.2493 35.8757V20.5618V5.27827H74.282H88.3147V15.8943ZM98.3207 21.8125L98.3817 35.7842H95.6362H92.8906V21.7515V7.68824L95.5751 7.77975L98.2292 7.87127L98.3207 21.8125ZM110.798 11.2879L113.33 12.1116V15.5283V18.9449L110.493 19.8906C108.327 20.6228 107.137 20.8363 105.307 20.8363H102.958V15.6503V10.4643H105.612C107.656 10.4643 108.845 10.6473 110.798 11.2879ZM36.6682 42.2515C36.5156 43.1362 36.4546 45.4851 36.5461 47.4375L36.6987 51.0372H34.1972H31.6957L32.6109 45.8512L33.5565 40.6652H35.2649H36.9732L36.6682 42.2515ZM98.3817 59.7314V78.7976H95.6362H92.8906V59.7314V40.6652H95.6362H98.3817V59.7314Z" fill="#556BAF"/>
<path d="M33.5881 13.8505L32.7949 14.4606V20.5618C32.7949 26.2359 32.8254 26.663 33.405 27.2426C34.3507 28.1883 35.6015 28.1578 36.6997 27.1511C37.3403 26.541 37.3708 26.3579 37.3708 20.6228C37.3708 14.7351 37.3708 14.7046 36.6082 13.9725C35.693 13.0573 34.6558 12.9963 33.5881 13.8505Z" fill="#556BAF"/>
<path d="M41.0914 13.8199C40.1763 14.6741 40.0542 15.8028 40.1763 21.5684C40.2678 26.2053 40.3288 26.6629 40.9084 27.2425C41.8541 28.2187 43.4099 28.1577 44.2946 27.09C45.0267 26.2663 45.0267 26.2053 44.9352 20.3177C44.8437 14.491 44.8437 14.369 44.1115 13.7894C43.1964 13.0268 41.9151 13.0573 41.0914 13.8199Z" fill="#556BAF"/>
<path d="M48.7177 13.8199C47.772 14.7351 47.6805 15.2842 47.8025 21.2024C47.894 27.3341 48.077 27.8527 50.182 27.8527C52.2869 27.8527 52.4699 27.3341 52.5614 21.2024C52.6224 18.2738 52.5919 15.5283 52.5004 15.1622C52.2259 14.1555 51.1276 13.2098 50.182 13.2098C49.7549 13.2098 49.0837 13.4844 48.7177 13.8199Z" fill="#556BAF"/>
</svg>
