<svg width="148" height="115" viewBox="0 0 148 115" fill="none" xmlns="http://www.w3.org/2000/svg">
<path d="M66.7004 7.06413L59.5734 13.5106H47.8574L36.1066 13.5456V23.9511L36.0719 34.3915L21.7484 47.2144C13.8566 54.2564 5.75625 61.5087 3.73984 63.3305L0.0546875 66.6238L11.1102 66.7289L22.2004 66.799V90.7981V114.797H74.0012H125.802V90.7981V66.799L136.857 66.7289L147.948 66.6238L111.096 33.6908C90.8277 15.5777 74.1402 0.722771 74.0359 0.687737C73.9316 0.652702 70.6289 3.52558 66.7004 7.06413ZM103.378 34.7419L132.407 60.6679L126.15 60.773L119.892 60.843V84.8421V108.841H74.0012H28.1105V84.8421V60.843L21.8527 60.773L15.5602 60.6679L28.8059 48.9311L42.0168 37.1943V28.3304V19.5016H47.7531H53.4547L53.559 23.2153L53.6633 26.929L63.7453 17.7849C69.3078 12.7749 73.9316 8.67574 74.0707 8.74582C74.2098 8.78085 87.3859 20.4826 103.378 34.7419Z" fill="#556BAF"/>
<path d="M56.9301 50.928C55.8176 51.979 54.7398 53.4855 53.9055 55.2023C52.6539 57.7598 52.6191 57.935 52.6191 61.7188C52.6191 65.3274 52.6887 65.7128 53.6969 67.885C54.3574 69.2864 55.748 71.2483 57.1039 72.7548C60.5457 76.5036 61.3105 78.1853 61.3105 81.864C61.3105 85.2624 60.6848 86.8039 58.3207 89.3965C56.791 91.0432 56.5477 92.5847 57.5906 93.5307C58.7727 94.6168 59.8852 94.2664 61.7625 92.1993C65.1348 88.4856 66.5254 84.0362 65.7258 79.4115C65.1695 76.0832 63.6746 73.2453 60.9629 70.3725C58.0773 67.2543 56.9648 64.942 56.9648 61.8589C56.9648 58.7758 57.7297 56.7088 59.7809 54.3614C61.6582 52.1892 61.9016 51.1031 60.7891 49.982C59.7113 48.8959 58.8422 49.1412 56.9301 50.928Z" fill="#556BAF"/>
<path d="M70.5948 51.5587C67.3269 55.1322 65.9362 59.6167 66.6663 64.0662C67.2226 67.5347 68.4394 69.847 71.2902 73.0002C74.4886 76.5387 75.5316 78.781 75.5316 82.0392C75.4968 85.0522 74.6972 87.0142 72.4722 89.5367C71.603 90.5177 70.873 91.6388 70.873 91.9892C70.873 93.0403 72.0202 94.2314 73.098 94.2314C75.4273 94.2314 79.2862 88.4156 79.8425 84.1413C80.503 78.9561 79.0429 74.857 74.9753 70.4426C72.1593 67.3945 71.1859 65.4326 70.9773 62.4546C70.7687 59.6518 71.7421 56.9541 73.8976 54.5367C76.2269 51.909 76.0183 49.6317 73.4804 49.6317C72.5417 49.6317 72.0202 49.9821 70.5948 51.5587Z" fill="#556BAF"/>
<path d="M86.3426 51.4885C83.0051 54.9569 81.4754 59.7217 82.275 64.3464C82.8312 67.6747 84.2566 70.3724 87.0379 73.4555C90.0277 76.7138 91.0359 78.8509 91.0359 81.899C91.0359 84.982 90.2711 87.0491 88.2199 89.3965C87.1769 90.5877 86.5164 91.7088 86.5164 92.2343C86.5164 93.3204 87.6637 94.4766 88.7414 94.4766C89.9234 94.4766 92.948 91.1132 94.2691 88.2753C95.3121 86.0331 95.3816 85.6477 95.3816 82.0391C95.3816 78.4305 95.3121 78.0451 94.2691 75.8379C93.6086 74.4014 92.2875 72.5446 90.8969 71.0731C89.6801 69.7418 88.2199 67.7798 87.6637 66.7638C86.8293 65.1171 86.6902 64.4865 86.6902 61.8939C86.6902 58.4955 87.316 56.9539 89.6801 54.3613C91.2793 52.6096 91.5226 51.068 90.2711 50.1922C88.9848 49.2812 88.2199 49.5265 86.3426 51.4885Z" fill="#556BAF"/>
</svg>
