<svg width="19" height="19" viewBox="0 0 19 19" fill="none" xmlns="http://www.w3.org/2000/svg">
<path d="M15.8327 7.91665C15.8327 12.6666 9.49935 17.4166 9.49935 17.4166C9.49935 17.4166 3.16602 12.6666 3.16602 7.91665C3.16602 6.23694 3.83328 4.62603 5.02101 3.4383C6.20874 2.25057 7.81964 1.58331 9.49935 1.58331C11.1791 1.58331 12.79 2.25057 13.9777 3.4383C15.1654 4.62603 15.8327 6.23694 15.8327 7.91665Z" stroke="#505E8C" stroke-width="2" stroke-linecap="round" stroke-linejoin="round"/>
<path d="M9.5 10.2917C10.8117 10.2917 11.875 9.22836 11.875 7.91669C11.875 6.60501 10.8117 5.54169 9.5 5.54169C8.18832 5.54169 7.125 6.60501 7.125 7.91669C7.125 9.22836 8.18832 10.2917 9.5 10.2917Z" stroke="#505E8C" stroke-width="2" stroke-linecap="round" stroke-linejoin="round"/>
</svg>
